<mxfile host="app.diagrams.net" modified="2021-12-13T07:02:55.133Z" agent="5.0 (Windows NT 10.0; Win64; x64) AppleWebKit/537.36 (KHTML, like Gecko) Chrome/96.0.4664.45 Safari/537.36" etag="5L0bYKZzwrgUnP2IFOQQ" version="15.8.9" type="github">
  <diagram name="Page-1" id="c7558073-3199-34d8-9f00-42111426c3f3">
    <mxGraphModel dx="2248" dy="1965" grid="1" gridSize="10" guides="1" tooltips="1" connect="1" arrows="1" fold="1" page="1" pageScale="1" pageWidth="826" pageHeight="1169" background="none" math="0" shadow="0">
      <root>
        <mxCell id="0" />
        <mxCell id="1" parent="0" />
        <mxCell id="3ocNkwjFxYRQ3FP-kNJY-60" value="&lt;pre style=&quot;font-size: 13.5pt ; background-color: rgb(255 , 255 , 255) ; font-family: &amp;#34;consolas&amp;#34;&quot;&gt;sendEventToGame&lt;/pre&gt;" style="text;html=1;strokeColor=none;fillColor=none;align=center;verticalAlign=middle;whiteSpace=wrap;rounded=0;" vertex="1" parent="1">
          <mxGeometry x="610" y="282" width="170" height="39" as="geometry" />
        </mxCell>
        <mxCell id="3ocNkwjFxYRQ3FP-kNJY-58" value="&lt;pre style=&quot;background-color: rgb(255 , 255 , 255) ; font-family: &amp;#34;consolas&amp;#34; ; font-size: 13.5pt&quot;&gt;&lt;pre style=&quot;font-family: &amp;#34;consolas&amp;#34; ; font-size: 13.5pt&quot;&gt;SceneRpcClient&lt;/pre&gt;&lt;/pre&gt;" style="text;html=1;strokeColor=none;fillColor=none;align=center;verticalAlign=middle;whiteSpace=wrap;rounded=0;" vertex="1" parent="1">
          <mxGeometry x="840" y="371" width="140" height="40" as="geometry" />
        </mxCell>
        <mxCell id="3ocNkwjFxYRQ3FP-kNJY-55" value="&lt;pre style=&quot;background-color: rgb(255 , 255 , 255) ; font-family: &amp;#34;consolas&amp;#34; ; font-size: 13.5pt&quot;&gt;AppRpcClient&lt;/pre&gt;" style="text;html=1;strokeColor=none;fillColor=none;align=center;verticalAlign=middle;whiteSpace=wrap;rounded=0;" vertex="1" parent="1">
          <mxGeometry x="826" y="140" width="140" height="40" as="geometry" />
        </mxCell>
        <mxCell id="4" value="Client&#xa;客户端&#xa;(存储了所有网关地址，根据连接速度选择或者随机选)" style="whiteSpace=wrap;align=center;verticalAlign=middle;fontStyle=1;strokeWidth=3;fillColor=#FFFFCC" parent="1" vertex="1">
          <mxGeometry x="-80" y="-50" width="90" height="660" as="geometry" />
        </mxCell>
        <mxCell id="37" value="" style="edgeStyle=none;noEdgeStyle=1;strokeColor=#990000;strokeWidth=2" parent="1" source="4" edge="1">
          <mxGeometry width="100" height="100" relative="1" as="geometry">
            <mxPoint x="280" y="190" as="sourcePoint" />
            <mxPoint x="236" y="281.0000000000001" as="targetPoint" />
          </mxGeometry>
        </mxCell>
        <mxCell id="NmhMlwWTc5Ed8HVVp_U0-97" value="ClientToGateProcessor" style="text;html=1;align=center;verticalAlign=middle;resizable=0;points=[];autosize=1;strokeColor=none;" parent="1" vertex="1">
          <mxGeometry x="20" y="250" width="140" height="20" as="geometry" />
        </mxCell>
        <mxCell id="NmhMlwWTc5Ed8HVVp_U0-98" value="Gate1&#xa;网关1" style="whiteSpace=wrap;align=center;verticalAlign=middle;fontStyle=1;strokeWidth=3;fillColor=#FFFFCC" parent="1" vertex="1">
          <mxGeometry x="323" y="130" width="90" height="60" as="geometry" />
        </mxCell>
        <mxCell id="NmhMlwWTc5Ed8HVVp_U0-99" value="选择gate" style="rhombus;whiteSpace=wrap;html=1;fillColor=#d5e8d4;strokeColor=#82b366;" parent="1" vertex="1">
          <mxGeometry x="190" y="241" width="80" height="80" as="geometry" />
        </mxCell>
        <mxCell id="NmhMlwWTc5Ed8HVVp_U0-100" value="" style="edgeStyle=orthogonalEdgeStyle;strokeColor=#990000;strokeWidth=2;entryX=0;entryY=0.5;entryDx=0;entryDy=0;exitX=0.5;exitY=0;exitDx=0;exitDy=0;" parent="1" source="NmhMlwWTc5Ed8HVVp_U0-99" target="NmhMlwWTc5Ed8HVVp_U0-98" edge="1">
          <mxGeometry width="100" height="100" relative="1" as="geometry">
            <mxPoint x="140" y="291.0000000000001" as="sourcePoint" />
            <mxPoint x="246" y="291.0000000000001" as="targetPoint" />
          </mxGeometry>
        </mxCell>
        <mxCell id="NmhMlwWTc5Ed8HVVp_U0-102" value="Gate2&#xa;网关2" style="whiteSpace=wrap;align=center;verticalAlign=middle;fontStyle=1;strokeWidth=3;fillColor=#FFFFCC" parent="1" vertex="1">
          <mxGeometry x="323" y="250" width="90" height="60" as="geometry" />
        </mxCell>
        <mxCell id="NmhMlwWTc5Ed8HVVp_U0-103" value="Gate3&#xa;网关3" style="whiteSpace=wrap;align=center;verticalAlign=middle;fontStyle=1;strokeWidth=3;fillColor=#FFFFCC" parent="1" vertex="1">
          <mxGeometry x="323" y="361" width="90" height="60" as="geometry" />
        </mxCell>
        <mxCell id="NmhMlwWTc5Ed8HVVp_U0-104" value="" style="edgeStyle=none;noEdgeStyle=1;strokeColor=#990000;strokeWidth=2;exitX=1;exitY=0.5;exitDx=0;exitDy=0;entryX=0;entryY=0.5;entryDx=0;entryDy=0;" parent="1" source="NmhMlwWTc5Ed8HVVp_U0-99" target="NmhMlwWTc5Ed8HVVp_U0-102" edge="1">
          <mxGeometry width="100" height="100" relative="1" as="geometry">
            <mxPoint x="530" y="270.0000000000001" as="sourcePoint" />
            <mxPoint x="636" y="270.0000000000001" as="targetPoint" />
          </mxGeometry>
        </mxCell>
        <mxCell id="NmhMlwWTc5Ed8HVVp_U0-105" value="" style="edgeStyle=orthogonalEdgeStyle;strokeColor=#990000;strokeWidth=2;exitX=0.5;exitY=1;exitDx=0;exitDy=0;" parent="1" source="NmhMlwWTc5Ed8HVVp_U0-99" target="NmhMlwWTc5Ed8HVVp_U0-103" edge="1">
          <mxGeometry width="100" height="100" relative="1" as="geometry">
            <mxPoint x="270" y="330" as="sourcePoint" />
            <mxPoint x="320" y="400" as="targetPoint" />
            <Array as="points">
              <mxPoint x="230" y="390" />
              <mxPoint x="320" y="390" />
              <mxPoint x="320" y="391" />
            </Array>
          </mxGeometry>
        </mxCell>
        <mxCell id="NmhMlwWTc5Ed8HVVp_U0-106" value="Hall&#xa;大厅" style="whiteSpace=wrap;align=center;verticalAlign=middle;fontStyle=1;strokeWidth=3;fillColor=#dae8fc;strokeColor=#6c8ebf;" parent="1" vertex="1">
          <mxGeometry x="710" y="-60" width="90" height="250" as="geometry" />
        </mxCell>
        <mxCell id="NmhMlwWTc5Ed8HVVp_U0-107" value="Scene&#xa;游戏场" style="whiteSpace=wrap;align=center;verticalAlign=middle;fontStyle=1;strokeWidth=3;fillColor=#dae8fc;strokeColor=#6c8ebf;" parent="1" vertex="1">
          <mxGeometry x="710" y="361" width="90" height="229" as="geometry" />
        </mxCell>
        <mxCell id="NmhMlwWTc5Ed8HVVp_U0-108" value="" style="edgeStyle=none;noEdgeStyle=1;strokeWidth=2;exitX=1.013;exitY=0.639;exitDx=0;exitDy=0;exitPerimeter=0;entryX=0;entryY=0.5;entryDx=0;entryDy=0;strokeColor=#0000CC;" parent="1" source="NmhMlwWTc5Ed8HVVp_U0-98" target="NmhMlwWTc5Ed8HVVp_U0-107" edge="1">
          <mxGeometry width="100" height="100" relative="1" as="geometry">
            <mxPoint x="482" y="270.0000000000001" as="sourcePoint" />
            <mxPoint x="450" y="290" as="targetPoint" />
          </mxGeometry>
        </mxCell>
        <mxCell id="NmhMlwWTc5Ed8HVVp_U0-128" value="&lt;span style=&quot;background-color: rgb(204 , 255 , 255)&quot;&gt;GateToSceneProcessor&lt;/span&gt;" style="edgeLabel;html=1;align=center;verticalAlign=middle;resizable=0;points=[];" parent="NmhMlwWTc5Ed8HVVp_U0-108" vertex="1" connectable="0">
          <mxGeometry x="0.2306" y="4" relative="1" as="geometry">
            <mxPoint y="1" as="offset" />
          </mxGeometry>
        </mxCell>
        <mxCell id="NmhMlwWTc5Ed8HVVp_U0-109" value="" style="edgeStyle=none;noEdgeStyle=1;strokeWidth=2;exitX=1.013;exitY=0.597;exitDx=0;exitDy=0;exitPerimeter=0;entryX=0;entryY=0.5;entryDx=0;entryDy=0;strokeColor=#000099;" parent="1" source="NmhMlwWTc5Ed8HVVp_U0-102" target="NmhMlwWTc5Ed8HVVp_U0-107" edge="1">
          <mxGeometry width="100" height="100" relative="1" as="geometry">
            <mxPoint x="424.1700000000001" y="178.34000000000003" as="sourcePoint" />
            <mxPoint x="490" y="350" as="targetPoint" />
          </mxGeometry>
        </mxCell>
        <mxCell id="NmhMlwWTc5Ed8HVVp_U0-127" value="GateToSceneProcessor" style="edgeLabel;html=1;align=center;verticalAlign=middle;resizable=0;points=[];labelBackgroundColor=#CCFFFF;" parent="NmhMlwWTc5Ed8HVVp_U0-109" vertex="1" connectable="0">
          <mxGeometry x="-0.0734" y="1" relative="1" as="geometry">
            <mxPoint as="offset" />
          </mxGeometry>
        </mxCell>
        <mxCell id="NmhMlwWTc5Ed8HVVp_U0-113" value="" style="edgeStyle=none;noEdgeStyle=1;strokeWidth=2;exitX=1;exitY=0.5;exitDx=0;exitDy=0;entryX=0;entryY=0.5;entryDx=0;entryDy=0;strokeColor=#000099;" parent="1" source="NmhMlwWTc5Ed8HVVp_U0-103" target="NmhMlwWTc5Ed8HVVp_U0-107" edge="1">
          <mxGeometry width="100" height="100" relative="1" as="geometry">
            <mxPoint x="424.1700000000001" y="295.81999999999994" as="sourcePoint" />
            <mxPoint x="600" y="381.0000000000001" as="targetPoint" />
          </mxGeometry>
        </mxCell>
        <mxCell id="NmhMlwWTc5Ed8HVVp_U0-123" value="&lt;span style=&quot;background-color: rgb(204 , 255 , 255)&quot;&gt;GateToSceneProcessor&lt;/span&gt;" style="edgeLabel;html=1;align=center;verticalAlign=middle;resizable=0;points=[];" parent="NmhMlwWTc5Ed8HVVp_U0-113" vertex="1" connectable="0">
          <mxGeometry x="-0.1078" y="-2" relative="1" as="geometry">
            <mxPoint as="offset" />
          </mxGeometry>
        </mxCell>
        <mxCell id="NmhMlwWTc5Ed8HVVp_U0-117" value="" style="edgeStyle=none;noEdgeStyle=1;strokeColor=#990000;strokeWidth=2;exitX=1;exitY=0.5;exitDx=0;exitDy=0;entryX=0;entryY=0.5;entryDx=0;entryDy=0;" parent="1" source="NmhMlwWTc5Ed8HVVp_U0-103" target="NmhMlwWTc5Ed8HVVp_U0-106" edge="1">
          <mxGeometry width="100" height="100" relative="1" as="geometry">
            <mxPoint x="423" y="401" as="sourcePoint" />
            <mxPoint x="590" y="401" as="targetPoint" />
          </mxGeometry>
        </mxCell>
        <mxCell id="NmhMlwWTc5Ed8HVVp_U0-124" value="Text" style="edgeLabel;html=1;align=center;verticalAlign=middle;resizable=0;points=[];" parent="NmhMlwWTc5Ed8HVVp_U0-117" vertex="1" connectable="0">
          <mxGeometry x="0.244" y="-2" relative="1" as="geometry">
            <mxPoint as="offset" />
          </mxGeometry>
        </mxCell>
        <mxCell id="NmhMlwWTc5Ed8HVVp_U0-125" value="GateToHallProcessor" style="edgeLabel;html=1;align=center;verticalAlign=middle;resizable=0;points=[];" parent="NmhMlwWTc5Ed8HVVp_U0-117" vertex="1" connectable="0">
          <mxGeometry x="0.2354" y="1" relative="1" as="geometry">
            <mxPoint as="offset" />
          </mxGeometry>
        </mxCell>
        <mxCell id="NmhMlwWTc5Ed8HVVp_U0-118" value="" style="edgeStyle=none;noEdgeStyle=1;strokeColor=#990000;strokeWidth=2;exitX=1.004;exitY=0.611;exitDx=0;exitDy=0;entryX=0;entryY=0.5;entryDx=0;entryDy=0;exitPerimeter=0;" parent="1" source="NmhMlwWTc5Ed8HVVp_U0-102" target="NmhMlwWTc5Ed8HVVp_U0-106" edge="1">
          <mxGeometry width="100" height="100" relative="1" as="geometry">
            <mxPoint x="423" y="401" as="sourcePoint" />
            <mxPoint x="580" y="180" as="targetPoint" />
          </mxGeometry>
        </mxCell>
        <mxCell id="NmhMlwWTc5Ed8HVVp_U0-126" value="GateToHallProcessor" style="edgeLabel;html=1;align=center;verticalAlign=middle;resizable=0;points=[];" parent="NmhMlwWTc5Ed8HVVp_U0-118" vertex="1" connectable="0">
          <mxGeometry x="0.1275" y="-1" relative="1" as="geometry">
            <mxPoint as="offset" />
          </mxGeometry>
        </mxCell>
        <mxCell id="NmhMlwWTc5Ed8HVVp_U0-119" value="" style="edgeStyle=none;noEdgeStyle=1;strokeColor=#990000;strokeWidth=2;entryX=0;entryY=0.5;entryDx=0;entryDy=0;" parent="1" target="NmhMlwWTc5Ed8HVVp_U0-106" edge="1">
          <mxGeometry width="100" height="100" relative="1" as="geometry">
            <mxPoint x="413" y="170" as="sourcePoint" />
            <mxPoint x="580" y="180" as="targetPoint" />
          </mxGeometry>
        </mxCell>
        <mxCell id="NmhMlwWTc5Ed8HVVp_U0-122" value="GateToHallProcessor" style="edgeLabel;html=1;align=center;verticalAlign=middle;resizable=0;points=[];" parent="NmhMlwWTc5Ed8HVVp_U0-119" vertex="1" connectable="0">
          <mxGeometry x="-0.2659" y="2" relative="1" as="geometry">
            <mxPoint x="16" y="-4" as="offset" />
          </mxGeometry>
        </mxCell>
        <mxCell id="NmhMlwWTc5Ed8HVVp_U0-120" value="" style="edgeStyle=none;noEdgeStyle=1;strokeColor=#990000;strokeWidth=2;exitX=0.75;exitY=1;exitDx=0;exitDy=0;entryX=0.75;entryY=0;entryDx=0;entryDy=0;" parent="1" source="NmhMlwWTc5Ed8HVVp_U0-106" target="NmhMlwWTc5Ed8HVVp_U0-107" edge="1">
          <mxGeometry width="100" height="100" relative="1" as="geometry">
            <mxPoint x="709.9999999999999" y="250.99999999999997" as="sourcePoint" />
            <mxPoint x="916.64" y="314.34000000000003" as="targetPoint" />
          </mxGeometry>
        </mxCell>
        <mxCell id="NmhMlwWTc5Ed8HVVp_U0-121" value="" style="edgeStyle=none;noEdgeStyle=1;strokeColor=#990000;strokeWidth=2;entryX=0.25;entryY=1;entryDx=0;entryDy=0;" parent="1" target="NmhMlwWTc5Ed8HVVp_U0-106" edge="1">
          <mxGeometry width="100" height="100" relative="1" as="geometry">
            <mxPoint x="733" y="360" as="sourcePoint" />
            <mxPoint x="787.5" y="371.0000000000001" as="targetPoint" />
          </mxGeometry>
        </mxCell>
        <mxCell id="3ocNkwjFxYRQ3FP-kNJY-37" value="" style="edgeStyle=none;noEdgeStyle=1;strokeColor=#990000;strokeWidth=2;exitX=0;exitY=0.12;exitDx=0;exitDy=0;entryX=1;entryY=0.064;entryDx=0;entryDy=0;entryPerimeter=0;exitPerimeter=0;fillColor=#000099;" edge="1" parent="1" source="NmhMlwWTc5Ed8HVVp_U0-106" target="4">
          <mxGeometry width="100" height="100" relative="1" as="geometry">
            <mxPoint x="10" y="29.99605166051657" as="sourcePoint" />
            <mxPoint x="180" y="-50" as="targetPoint" />
          </mxGeometry>
        </mxCell>
        <mxCell id="3ocNkwjFxYRQ3FP-kNJY-39" value="" style="edgeStyle=none;noEdgeStyle=1;strokeColor=#A680B8;strokeWidth=2;exitX=0;exitY=0.36;exitDx=0;exitDy=0;exitPerimeter=0;fillColor=#FFD966;" edge="1" parent="1" source="NmhMlwWTc5Ed8HVVp_U0-106">
          <mxGeometry width="100" height="100" relative="1" as="geometry">
            <mxPoint x="1050" y="107.76" as="sourcePoint" />
            <mxPoint x="360" y="130" as="targetPoint" />
          </mxGeometry>
        </mxCell>
        <mxCell id="3ocNkwjFxYRQ3FP-kNJY-41" value="&lt;pre style=&quot;font-size: 13.5pt ; background-color: rgb(255 , 255 , 255) ; font-family: &amp;#34;consolas&amp;#34;&quot;&gt;pushToAllGate&lt;/pre&gt;" style="text;html=1;align=center;verticalAlign=middle;resizable=0;points=[];autosize=1;strokeColor=none;fillColor=none;" vertex="1" parent="1">
          <mxGeometry x="400" y="35" width="140" height="60" as="geometry" />
        </mxCell>
        <mxCell id="3ocNkwjFxYRQ3FP-kNJY-42" value="&lt;pre style=&quot;font-family: &amp;#34;consolas&amp;#34; ; font-size: 13.5pt&quot;&gt;sendMessageToUser&lt;/pre&gt;" style="text;html=1;align=center;verticalAlign=middle;resizable=0;points=[];autosize=1;strokeColor=none;fillColor=none;" vertex="1" parent="1">
          <mxGeometry x="240" y="-70" width="180" height="60" as="geometry" />
        </mxCell>
        <mxCell id="3ocNkwjFxYRQ3FP-kNJY-44" value="" style="edgeStyle=none;noEdgeStyle=1;strokeColor=#990000;strokeWidth=2;exitX=0;exitY=0.75;exitDx=0;exitDy=0;entryX=1;entryY=0.064;entryDx=0;entryDy=0;entryPerimeter=0;fillColor=#000099;" edge="1" parent="1" source="NmhMlwWTc5Ed8HVVp_U0-107">
          <mxGeometry width="100" height="100" relative="1" as="geometry">
            <mxPoint x="710" y="500" as="sourcePoint" />
            <mxPoint x="10" y="522.24" as="targetPoint" />
          </mxGeometry>
        </mxCell>
        <mxCell id="3ocNkwjFxYRQ3FP-kNJY-45" value="&lt;pre style=&quot;font-family: &amp;#34;consolas&amp;#34; ; font-size: 13.5pt&quot;&gt;&lt;pre style=&quot;background-color: rgb(255 , 255 , 255) ; font-family: &amp;#34;consolas&amp;#34; ; font-size: 13.5pt&quot;&gt;GameMessageSender.sendMsg&lt;/pre&gt;&lt;/pre&gt;" style="text;html=1;align=center;verticalAlign=middle;resizable=0;points=[];autosize=1;strokeColor=none;fillColor=none;" vertex="1" parent="1">
          <mxGeometry x="170" y="470" width="260" height="60" as="geometry" />
        </mxCell>
        <mxCell id="3ocNkwjFxYRQ3FP-kNJY-48" value="web" style="whiteSpace=wrap;align=center;verticalAlign=middle;fontStyle=1;strokeWidth=3;fillColor=#f8cecc;strokeColor=#b85450;" vertex="1" parent="1">
          <mxGeometry x="970" y="251" width="100" height="60" as="geometry" />
        </mxCell>
        <mxCell id="3ocNkwjFxYRQ3FP-kNJY-49" value="" style="edgeStyle=none;noEdgeStyle=1;strokeColor=#F8CECC;strokeWidth=2;exitX=0;exitY=1;exitDx=0;exitDy=0;entryX=1;entryY=0.5;entryDx=0;entryDy=0;" edge="1" parent="1" source="3ocNkwjFxYRQ3FP-kNJY-48" target="NmhMlwWTc5Ed8HVVp_U0-107">
          <mxGeometry width="100" height="100" relative="1" as="geometry">
            <mxPoint x="1010" y="280" as="sourcePoint" />
            <mxPoint x="1010" y="451" as="targetPoint" />
            <Array as="points">
              <mxPoint x="900" y="390" />
            </Array>
          </mxGeometry>
        </mxCell>
        <mxCell id="3ocNkwjFxYRQ3FP-kNJY-50" value="" style="edgeStyle=none;noEdgeStyle=1;strokeColor=#F8CECC;strokeWidth=2;exitX=0;exitY=0;exitDx=0;exitDy=0;entryX=0.989;entryY=0.62;entryDx=0;entryDy=0;entryPerimeter=0;" edge="1" parent="1" source="3ocNkwjFxYRQ3FP-kNJY-48" target="NmhMlwWTc5Ed8HVVp_U0-106">
          <mxGeometry width="100" height="100" relative="1" as="geometry">
            <mxPoint x="1020" y="300" as="sourcePoint" />
            <mxPoint x="810" y="485.5" as="targetPoint" />
          </mxGeometry>
        </mxCell>
        <mxCell id="3ocNkwjFxYRQ3FP-kNJY-59" value="&lt;span style=&quot;font-family: &amp;#34;consolas&amp;#34; ; font-size: 13.5pt&quot;&gt;sendEventToHall&lt;/span&gt;" style="text;html=1;strokeColor=none;fillColor=none;align=center;verticalAlign=middle;whiteSpace=wrap;rounded=0;" vertex="1" parent="1">
          <mxGeometry x="720" y="211" width="200" height="50" as="geometry" />
        </mxCell>
      </root>
    </mxGraphModel>
  </diagram>
</mxfile>
